<?xml version="1.0" encoding="utf-8"?>
<!-- Generator: Adobe Illustrator 16.0.3, SVG Export Plug-In . SVG Version: 6.00 Build 0)  -->
<!DOCTYPE svg PUBLIC "-//W3C//DTD SVG 1.1//EN" "http://www.w3.org/Graphics/SVG/1.1/DTD/svg11.dtd">
<svg version="1.1" id="Calque_1" xmlns="http://www.w3.org/2000/svg" xmlns:xlink="http://www.w3.org/1999/xlink" x="0px" y="0px"
	 width="595.28px" height="841.89px" viewBox="0 0 595.28 841.89" enable-background="new 0 0 595.28 841.89" xml:space="preserve">
<polygon fill="#00576E" points="139.281,389.45 151.532,385.166 138.681,383.588 "/>
<polygon fill="#00576E" points="259.537,521.581 276.223,512.111 259.537,512.111 "/>
<polygon fill="#00576E" points="226.617,485.504 246.234,477.838 225.715,473.104 "/>
<polygon fill="#00576E" points="196.522,454.106 216.17,446.872 195.652,442.137 "/>
<polygon fill="#00576E" points="167.209,422.234 186.857,415 166.339,410.266 "/>
<polygon fill="#00576E" points="323.573,367.804 316.964,361.115 323.573,358.484 "/>
<polygon fill="#00576E" points="233.228,385.041 226.618,378.352 233.228,375.721 "/>
<polygon fill="#007493" points="407.452,304.971 407.452,347.286 369.271,363.444 369.271,320.002 "/>
<polygon fill="#007493" points="438.568,393.659 404.146,365.456 404.146,379.663 438.568,407.937 "/>
<polygon fill="#007493" points="444.118,337.014 444.431,347.21 404.145,365.456 404.145,354.689 "/>
<polygon fill="#007493" points="404.145,354.689 404.145,396.403 369.271,365.456 369.271,327.524 "/>
<polygon fill="#00B9EE" points="407.452,304.971 369.271,320.002 334.397,297.153 373.78,284.828 "/>
<polygon fill="#00B9EE" points="204.821,305.271 155.366,320.002 188.925,346.759 234.321,329.923 "/>
<polygon fill="#00B9EE" points="279.68,322.407 234.697,336.677 204.032,312.626 246.723,299.097 "/>
<polygon fill="#00B9EE" points="323.573,316.395 279.681,331.501 246.609,305.271 287.497,293.545 "/>
<polygon fill="#00B9EE" points="369.271,309.48 323.574,326.015 290.203,301.363 335.6,286.932 "/>
<polygon fill="#007493" points="234.434,375.17 234.434,329.772 184.678,347.962 187.973,393.659 "/>
<polygon fill="#00B9EE" points="273.968,414.109 311.623,451.682 259.537,478.74 224.137,435.898 "/>
<polygon fill="#00B9EE" points="177.688,331.502 134.847,345.594 164.715,383.588 210.834,365.098 "/>
<polygon fill="#00B9EE" points="178.59,338.041 156.493,312.787 115.005,325.64 135.507,351.594 "/>
<polygon fill="#00B9EE" points="407.452,312.734 444.119,337.014 404.145,354.688 369.271,327.524 "/>
<polygon fill="#00B9EE" points="444.431,347.21 404.145,365.455 438.568,393.659 481.108,372.614 "/>
<polygon fill="#00B9EE" points="392.57,445.166 356.944,411.322 309.144,431.705 346.572,469.721 "/>
<polygon fill="#0093BB" points="346.572,484.301 346.572,526.418 292.909,557.508 292.909,512.111 "/>
<polygon fill="#0093BB" points="438.568,407.938 438.568,452.545 392.57,479.193 392.57,428.885 "/>
<polygon fill="#0093BB" points="481.108,372.614 479.154,420.167 438.568,442.524 438.568,393.659 "/>
<polygon fill="#00B9EE" points="275.997,422.596 241.5,386.293 194.373,406.36 225.039,446.425 "/>
<polygon fill="#007493" points="292.908,557.508 259.537,512.11 259.537,469.27 292.908,512.11 "/>
<polygon fill="#007493" points="196.522,454.106 166.493,413.034 164.16,374.387 194.374,414.109 "/>
<polygon fill="#007493" points="167.091,422.234 138.681,383.587 134.847,345.594 164.715,383.587 "/>
<polygon fill="#007493" points="139.281,389.45 116.702,359.837 115.004,325.639 135.506,351.593 "/>
<polygon fill="#007493" points="346.572,469.721 346.572,484.301 309.143,447.173 309.143,431.705 "/>
<polygon fill="#007493" points="323.573,316.395 323.573,359.836 279.681,377.124 279.681,331.501 "/>
<polygon fill="#007493" points="279.68,367.804 279.68,322.407 232.48,336.838 233.219,386.293 "/>
<polygon fill="#00B9EE" points="346.572,484.301 309.143,446.425 259.538,469.27 292.909,512.111 "/>
<polygon fill="#00B9EE" points="242.401,393.509 208.805,357.207 164.16,374.005 194.374,414.109 "/>
<polygon fill="#007493" points="259.537,512.111 259.537,521.581 226.167,473.329 224.137,435.898 259.537,478.74 "/>
<polygon fill="#007493" points="226.617,485.504 195.952,442.977 193.922,405.772 225.039,446.424 "/>
<polygon fill="#007493" points="392.69,430.507 392.57,445.166 356.944,411.322 356.944,399.371 "/>
<polygon fill="#0093BB" points="392.57,445.166 392.57,489.772 346.572,515.304 346.572,469.721 "/>
<polygon fill="#00B9EE" points="438.568,407.938 404.146,378.326 356.944,399.372 393.953,431.705 "/>
<polygon fill="#00576E" points="279.68,377.124 273.07,370.435 279.68,367.804 "/>
<polygon fill="#007493" points="369.271,309.48 369.271,347.962 323.574,367.804 323.574,326.015 "/>
<polygon fill="#00B9EE" points="177.688,331.502 173.946,332.733 161.268,318.244 204.82,305.271 234.321,329.924 191.718,345.723 
	"/>
</svg>
